<svg width="24" height="24" viewBox="0 0 24 24" fill="none" xmlns="http://www.w3.org/2000/svg">
<path d="M7 17.9983C4.82497 17.9862 3.64706 17.8897 2.87868 17.1213C2 16.2426 2 14.8284 2 12L2 8C2 5.17157 2 3.75736 2.87868 2.87868C3.75736 2 5.17157 2 8 2L16 2C18.8284 2 20.2426 2 21.1213 2.87868C22 3.75736 22 5.17157 22 8V12C22 14.8284 22 16.2426 21.1213 17.1213C20.3915 17.8512 19.2921 17.9748 17.3197 17.9957L16.5 17.9983" stroke="#252B37" stroke-width="1.5"/>
<path d="M9 6L15 6" stroke="#252B37" stroke-width="1.5" stroke-linecap="round"/>
<path d="M7 9.5H17" stroke="#252B37" stroke-width="1.5" stroke-linecap="round"/>
<path d="M10.8929 13.9437C11.5322 13.399 12.4724 13.399 13.1116 13.9437C13.3855 14.1772 13.7261 14.3182 14.0849 14.3469C14.9221 14.4137 15.5869 15.0785 15.6537 15.9157C15.6824 16.2745 15.8234 16.6151 16.0569 16.889C16.6016 17.5283 16.6016 18.4684 16.0569 19.1077C15.8234 19.3816 15.6824 19.7222 15.6537 20.081C15.5869 20.9182 14.9221 21.583 14.0849 21.6498C13.7261 21.6785 13.3855 21.8195 13.1116 22.053C12.4724 22.5977 11.5322 22.5977 10.8929 22.053C10.619 21.8195 10.2784 21.6785 9.91963 21.6498C9.08241 21.583 8.41759 20.9182 8.35078 20.081C8.32215 19.7222 8.18107 19.3816 7.94763 19.1077C7.40287 18.4684 7.40287 17.5283 7.94763 16.889C8.18107 16.6151 8.32215 16.2745 8.35078 15.9157C8.41759 15.0785 9.08241 14.4137 9.91963 14.3469C10.2784 14.3182 10.619 14.1772 10.8929 13.9437Z" stroke="#252B37" stroke-width="1.5"/>
<path d="M10.5 18.2L11.3571 19L13.5 17" stroke="#252B37" stroke-width="1.5" stroke-linecap="round" stroke-linejoin="round"/>
</svg>
