<svg width="24" height="24" viewBox="0 0 24 24" fill="none" xmlns="http://www.w3.org/2000/svg">
<path d="M15 4C18.1143 4.00911 19.7653 4.10755 20.8284 5.17064C22 6.34222 22 8.22783 22 11.9991C22 15.7703 22 17.6559 20.8284 18.8275C19.6569 19.9991 17.7712 19.9991 14 19.9991H10C6.22876 19.9991 4.34315 19.9991 3.17157 18.8275C2 17.6559 2 15.7703 2 11.9991C2 8.22783 2 6.34222 3.17157 5.17064C4.23467 4.10755 5.8857 4.00911 9 4" stroke="#252B37" stroke-width="1.5" stroke-linecap="round"/>
<path d="M12 5L12 3" stroke="#252B37" stroke-width="1.5" stroke-linecap="round"/>
<path d="M8 10.5H16" stroke="#252B37" stroke-width="1.5" stroke-linecap="round"/>
<path d="M8 14H13.5" stroke="#252B37" stroke-width="1.5" stroke-linecap="round"/>
</svg>
